<?xml version="1.0" standalone="no"?><!DOCTYPE svg PUBLIC "-//W3C//DTD SVG 1.1//EN" "http://www.w3.org/Graphics/SVG/1.1/DTD/svg11.dtd"><svg height="1366" node-id="1" sillyvg="true" template-height="1366" template-width="1366" version="1.1" viewBox="0 0 1366 1366" width="1366" xmlns="http://www.w3.org/2000/svg" xmlns:xlink="http://www.w3.org/1999/xlink"><defs node-id="15"></defs><path d="M 1075.80 683.00 L 1075.30 702.20 L 1073.90 721.40 L 1071.60 740.50 L 1068.30 759.50 L 1064.00 778.30 L 1058.90 796.80 L 1052.90 815.10 L 1045.90 833.00 L 1038.10 850.60 L 1029.40 867.80 L 1019.90 884.50 L 1009.60 900.70 L 998.50 916.50 L 986.70 931.60 L 974.10 946.20 L 960.80 960.10 L 946.80 973.40 L 932.20 985.90 L 917.00 997.70 L 901.20 1008.80 L 885.00 1019.10 L 868.20 1028.60 L 851.00 1037.20 L 833.30 1045.00 L 815.30 1052.00 L 797.00 1058.00 L 778.40 1063.10 L 759.60 1067.40 L 740.60 1070.60 L 721.50 1073.00 L 702.30 1074.40 L 683.00 1074.90 L 663.70 1074.40 L 644.50 1073.00 L 625.40 1070.70 L 606.40 1067.40 L 587.50 1063.20 L 569.00 1058.00 L 550.70 1052.00 L 532.70 1045.10 L 515.10 1037.30 L 497.80 1028.60 L 481.10 1019.20 L 464.80 1008.90 L 449.00 997.80 L 433.80 986.00 L 419.20 973.40 L 405.20 960.10 L 391.90 946.20 L 379.40 931.60 L 367.50 916.40 L 356.40 900.70 L 346.10 884.50 L 336.60 867.70 L 327.90 850.60 L 320.10 833.00 L 313.20 815.10 L 307.20 796.80 L 302.00 778.30 L 297.80 759.50 L 294.50 740.50 L 292.10 721.40 L 290.70 702.20 L 290.20 683.00 L 290.70 663.80 L 292.10 644.60 L 294.40 625.50 L 297.70 606.50 L 302.00 587.70 L 307.10 569.20 L 313.10 550.90 L 320.10 533.00 L 327.90 515.40 L 336.60 498.20 L 346.10 481.50 L 356.40 465.30 L 367.50 449.50 L 379.40 434.40 L 391.90 419.80 L 405.20 405.90 L 419.20 392.60 L 433.80 380.00 L 449.00 368.20 L 464.80 357.10 L 481.10 346.80 L 497.90 337.40 L 515.10 328.70 L 532.70 321.00 L 550.70 314.10 L 569.00 308.00 L 587.60 302.90 L 606.40 298.70 L 625.40 295.40 L 644.50 293.00 L 663.70 291.60 L 683.00 291.10 L 702.30 291.60 L 721.50 293.00 L 740.60 295.40 L 759.60 298.60 L 778.50 302.90 L 797.00 308.00 L 815.30 314.00 L 833.30 320.90 L 850.90 328.70 L 868.20 337.40 L 884.90 346.80 L 901.20 357.10 L 917.00 368.20 L 932.20 380.00 L 946.80 392.60 L 960.80 405.90 L 974.10 419.80 L 986.70 434.40 L 998.50 449.50 L 1009.60 465.30 L 1020.00 481.50 L 1029.50 498.20 L 1038.10 515.40 L 1045.90 533.00 L 1052.90 550.90 L 1058.90 569.20 L 1064.10 587.70 L 1068.30 606.50 L 1071.60 625.50 L 1074.00 644.60 L 1075.40 663.80 L 1075.80 683.00 Z" fill="#eff0f9" fill-rule="nonzero" node-id="17" stroke="none" target-height="783.80005" target-width="785.60004" target-x="290.2" target-y="291.1"></path><path d="M 327.00 462.00 L 454.50 462.00 L 457.80 462.20 L 461.00 462.90 L 464.00 463.90 L 466.90 465.30 L 469.40 467.10 L 473.90 471.50 L 475.60 474.10 L 477.10 477.00 L 478.10 480.00 L 478.80 483.10 L 479.00 486.50 L 479.00 766.10 L 510.70 766.10 L 510.70 862.10 L 479.00 862.10 L 479.00 936.40 L 478.80 938.80 L 478.10 941.10 L 476.90 943.20 L 475.40 945.00 L 473.50 946.60 L 471.40 947.70 L 469.10 948.40 L 466.70 948.60 L 389.10 948.60 L 389.10 862.00 L 198.10 862.00 Z M 389.10 766.10 L 389.10 558.60 L 325.90 766.10 Z" fill="#ffffff" fill-rule="nonzero" node-id="19" stroke="none" target-height="486.59998" target-width="312.6" target-x="198.1" target-y="462"></path><path d="M 479.00 766.10 L 479.00 486.50 L 478.80 483.10 L 478.10 480.00 L 477.10 477.00 L 475.60 474.10 L 473.90 471.50 L 469.40 467.10 L 466.90 465.30 L 464.00 463.90 L 461.00 462.90 L 457.80 462.20 L 454.50 462.00 L 327.00 462.00 L 198.00 862.00 L 389.00 862.00 L 389.00 948.60 L 466.70 948.60 L 469.10 948.40 L 471.40 947.70 L 473.50 946.60 L 475.40 945.00 L 476.90 943.20 L 478.10 941.10 L 478.80 938.80 L 479.00 936.30 L 479.00 862.00 L 510.70 862.00 L 510.70 766.00 Z M 504.50 772.20 L 479.00 772.20 L 477.40 772.00 L 476.00 771.40 L 474.70 770.40 L 473.70 769.10 L 473.10 767.70 L 472.90 766.10 L 472.90 486.50 L 472.60 483.10 L 471.70 480.10 L 470.30 477.20 L 468.50 474.60 L 466.30 472.40 L 463.70 470.60 L 460.90 469.30 L 457.80 468.40 L 454.50 468.10 L 331.50 468.10 L 206.50 855.90 L 389.10 855.90 L 390.70 856.10 L 393.40 857.70 L 394.40 859.00 L 395.00 860.40 L 395.20 862.00 L 395.20 942.50 L 466.80 942.50 L 468.40 942.30 L 469.80 941.70 L 471.10 940.70 L 472.10 939.40 L 472.70 938.00 L 472.90 936.30 L 472.90 862.00 L 473.70 859.00 L 474.70 857.70 L 476.00 856.70 L 477.40 856.10 L 479.00 855.90 L 504.60 855.90 Z M 389.10 772.20 L 390.70 772.00 L 392.10 771.40 L 393.40 770.40 L 394.40 769.10 L 395.00 767.70 L 395.20 766.10 L 395.20 558.60 L 394.50 555.80 L 392.70 553.70 L 390.00 552.60 L 388.50 552.50 L 387.10 552.80 L 384.70 554.30 L 383.20 556.80 L 320.00 764.30 L 319.80 767.10 L 320.90 769.70 L 323.10 771.50 L 325.90 772.20 Z M 332.30 766.10 L 325.80 766.10 L 389.10 558.60 L 389.10 766.10 L 332.30 766.10 Z" fill="#000000" fill-rule="evenodd" node-id="21" stroke="none" target-height="486.59998" target-width="312.7" target-x="198" target-y="462"></path><path d="M 984.20 462.00 L 1111.70 462.00 L 1114.90 462.20 L 1118.00 462.80 L 1121.10 463.90 L 1123.90 465.30 L 1126.60 467.00 L 1129.00 469.20 L 1131.20 471.60 L 1132.90 474.30 L 1134.30 477.10 L 1135.40 480.10 L 1136.00 483.30 L 1136.20 486.50 L 1136.20 766.10 L 1167.90 766.10 L 1167.90 862.10 L 1136.20 862.10 L 1136.20 936.40 L 1136.00 938.80 L 1135.30 941.10 L 1134.20 943.20 L 1132.60 945.00 L 1130.70 946.60 L 1128.60 947.70 L 1126.30 948.40 L 1123.90 948.60 L 1046.30 948.60 L 1046.30 862.00 L 855.30 862.00 Z M 1046.30 766.10 L 1046.30 558.60 L 983.10 766.10 Z" fill="#ffffff" fill-rule="nonzero" node-id="23" stroke="none" target-height="486.59998" target-width="312.60004" target-x="855.3" target-y="462"></path><path d="M 1136.20 766.10 L 1136.20 486.50 L 1136.00 483.20 L 1135.40 480.10 L 1134.30 477.10 L 1132.90 474.20 L 1131.20 471.60 L 1129.00 469.20 L 1126.60 467.00 L 1123.90 465.30 L 1121.10 463.80 L 1118.00 462.80 L 1114.90 462.20 L 1111.70 462.00 L 984.20 462.00 L 855.20 862.00 L 1046.20 862.00 L 1046.20 948.60 L 1123.90 948.60 L 1126.30 948.40 L 1128.60 947.70 L 1130.70 946.50 L 1132.60 945.00 L 1134.10 943.10 L 1135.20 941.00 L 1135.90 938.80 L 1136.20 936.30 L 1136.20 862.00 L 1167.80 862.00 L 1167.80 766.00 Z M 1161.70 772.20 L 1136.20 772.20 L 1134.60 772.00 L 1133.20 771.40 L 1131.90 770.40 L 1130.30 767.70 L 1130.10 766.10 L 1130.10 486.50 L 1129.40 481.70 L 1127.60 477.30 L 1124.70 473.50 L 1122.80 471.90 L 1118.70 469.50 L 1114.10 468.30 L 988.70 468.10 L 863.70 855.90 L 1046.30 855.90 L 1047.90 856.10 L 1050.60 857.70 L 1051.60 859.00 L 1052.20 860.40 L 1052.40 862.00 L 1052.40 942.50 L 1123.90 942.50 L 1125.60 942.30 L 1127.00 941.70 L 1128.30 940.70 L 1129.30 939.40 L 1130.10 936.30 L 1130.10 862.00 L 1130.30 860.40 L 1130.90 859.00 L 1131.90 857.70 L 1133.20 856.70 L 1134.60 856.10 L 1136.20 855.90 L 1161.70 855.90 Z M 1046.30 772.20 L 1047.90 772.00 L 1050.60 770.40 L 1051.60 769.10 L 1052.20 767.70 L 1052.40 766.10 L 1052.40 558.60 L 1051.70 555.80 L 1049.90 553.70 L 1047.20 552.60 L 1045.70 552.50 L 1044.30 552.80 L 1041.90 554.30 L 1040.40 556.80 L 977.20 764.30 L 977.10 767.50 L 978.50 770.20 L 981.30 771.90 L 983.10 772.20 Z M 989.50 766.10 L 983.10 766.10 L 1046.30 558.60 L 1046.30 766.10 L 989.50 766.10 Z" fill="#000000" fill-rule="evenodd" node-id="25" stroke="none" target-height="486.59998" target-width="312.60004" target-x="855.2" target-y="462"></path><path d="M 630.40 725.70 L 748.70 817.50 L 748.70 686.40 L 630.40 594.60 Z" fill="#2936ff" fill-rule="nonzero" node-id="27" stroke="none" target-height="222.90002" target-width="118.29999" target-x="630.4" target-y="594.6"></path><path d="M 630.40 725.70 L 630.40 594.60 L 748.70 686.40 L 748.70 817.50 L 742.60 812.70 Z M 742.60 805.00 L 742.60 689.30 L 636.60 607.10 L 636.60 722.70 Z" fill="#000000" fill-rule="evenodd" node-id="29" stroke="none" target-height="222.90002" target-width="118.29999" target-x="630.4" target-y="594.6"></path><path d="M 846.80 943.80 L 533.30 943.80 L 533.30 450.30 L 846.80 450.30 Z M 637.80 546.90 L 637.80 847.20 L 742.30 847.20 L 742.30 546.90 Z" fill="#ffffff" fill-rule="nonzero" node-id="31" stroke="none" target-height="493.5" target-width="313.5" target-x="533.3" target-y="450.3"></path><path d="M 846.80 943.80 L 533.30 943.80 L 533.30 450.30 L 846.80 450.30 Z M 840.60 937.70 L 539.40 937.70 L 539.40 456.50 L 840.60 456.50 Z M 637.80 540.80 L 636.20 541.00 L 634.70 541.60 L 633.40 542.60 L 632.50 543.90 L 631.90 545.30 L 631.60 546.90 L 631.60 847.20 L 631.90 848.80 L 632.50 850.30 L 633.40 851.60 L 634.70 852.50 L 637.80 853.40 L 742.30 853.40 L 743.90 853.10 L 746.60 851.60 L 747.60 850.30 L 748.20 848.80 L 748.40 847.20 L 748.40 546.90 L 748.20 545.30 L 746.60 542.60 L 745.30 541.60 L 743.90 541.00 L 742.30 540.80 Z M 637.80 546.90 L 742.30 546.90 L 742.30 847.20 L 637.80 847.20 L 637.80 546.90 Z" fill="#000000" fill-rule="evenodd" node-id="33" stroke="none" target-height="493.5" target-width="313.5" target-x="533.3" target-y="450.3"></path></svg>