<?xml version="1.0" standalone="no"?><!DOCTYPE svg PUBLIC "-//W3C//DTD SVG 1.1//EN" "http://www.w3.org/Graphics/SVG/1.1/DTD/svg11.dtd"><svg t="1725112880823" class="icon" viewBox="0 0 1024 1024" version="1.1" xmlns="http://www.w3.org/2000/svg" p-id="3976" xmlns:xlink="http://www.w3.org/1999/xlink" width="200" height="200"><path d="M51.2 0h921.6a51.2 51.2 0 0 1 51.2 51.2v921.6a51.2 51.2 0 0 1-51.2 51.2H51.2a51.2 51.2 0 0 1-51.2-51.2V51.2a51.2 51.2 0 0 1 51.2-51.2z" fill="#A971EB" p-id="3977"></path><path d="M384.9472 665.6v-44.4416h-118.272v-62.0032h100.7104v-44.4416h-100.7104v-59.8528h118.272v-44.4416H216.8576V665.6zM618.2656 665.6l-79.5648-130.816 74.1888-124.3648h-56.2688l-44.8 82.432-44.4416-82.432h-56.6272l74.1888 124.3648L405.7344 665.6h56.9856l49.1008-88.8832L561.28 665.6zM817.8944 665.6v-44.4416h-118.272v-62.0032h100.7104v-44.4416h-100.7104v-59.8528h118.272v-44.4416h-168.0896V665.6z" fill="#FFFFFF" p-id="3978"></path></svg>