<?xml version="1.0" standalone="no"?><!DOCTYPE svg PUBLIC "-//W3C//DTD SVG 1.1//EN" "http://www.w3.org/Graphics/SVG/1.1/DTD/svg11.dtd"><svg t="1725112893746" class="icon" viewBox="0 0 1024 1024" version="1.1" xmlns="http://www.w3.org/2000/svg" p-id="4130" xmlns:xlink="http://www.w3.org/1999/xlink" width="200" height="200"><path d="M51.2 0h921.6a51.2 51.2 0 0 1 51.2 51.2v921.6a51.2 51.2 0 0 1-51.2 51.2H51.2a51.2 51.2 0 0 1-51.2-51.2V51.2a51.2 51.2 0 0 1 51.2-51.2z" fill="#F46C6C" p-id="4131"></path><path d="M1024 51.2v307.2H0V51.2a51.2 51.2 0 0 1 51.2-51.2h921.6a51.2 51.2 0 0 1 51.2 51.2z" fill="#58ADF0" p-id="4132"></path><path d="M1024 665.6v307.2a51.2 51.2 0 0 1-51.2 51.2H51.2a51.2 51.2 0 0 1-51.2-51.2V665.6h1024z" fill="#75CF9F" p-id="4133"></path><path d="M665.6 1024H358.4V0h307.2z" fill="#FFCD5F" p-id="4134"></path><path d="M307.2 307.2m25.6 0l358.4 0q25.6 0 25.6 25.6l0 358.4q0 25.6-25.6 25.6l-358.4 0q-25.6 0-25.6-25.6l0-358.4q0-25.6 25.6-25.6Z" fill="#FFFFFF" p-id="4135"></path><path d="M358.4 358.4m25.6 0l256 0q25.6 0 25.6 25.6l0 256q0 25.6-25.6 25.6l-256 0q-25.6 0-25.6-25.6l0-256q0-25.6 25.6-25.6Z" fill="#FFCD5F" p-id="4136"></path></svg>